<svg width="140" height="170" viewBox="0 0 140 170" fill="none" xmlns="http://www.w3.org/2000/svg">
<path d="M129.942 15.0386H19.5099C15.4588 15.0386 12.1647 18.3327 12.1647 22.3837V98.0599C12.1647 102.111 15.4588 105.405 19.5099 105.405H129.942C133.993 105.405 137.287 102.111 137.287 98.0599V22.3837C137.287 18.3327 133.993 15.0386 129.942 15.0386Z" fill="#F2F2F2"/>
<path d="M117.961 20.8674H7.52865C3.47761 20.8674 0.183472 24.1615 0.183472 28.2126V103.889C0.183472 107.94 3.47761 111.234 7.52865 111.234H117.961C122.012 111.234 125.306 107.94 125.306 103.889V28.2126C125.306 24.1615 122.012 20.8674 117.961 20.8674ZM124.534 81.6152C124.534 97.5466 111.619 110.462 95.6876 110.462H7.52865C3.89858 110.462 0.955835 107.519 0.955835 103.889V28.2126C0.955835 24.5825 3.89857 21.6398 7.52863 21.6398H117.961C121.591 21.6398 124.534 24.5825 124.534 28.2126V81.6152Z" fill="#3F3D56"/>
<path d="M15.9575 94.8337L15.304 94.4222C15.7288 93.747 16.1672 93.0925 16.6066 92.4768L17.2352 92.9256C16.8044 93.529 16.3746 94.1709 15.9575 94.8337Z" fill="#CCCCCC"/>
<path d="M20.2162 89.3296L19.6633 88.7903C20.8419 87.5825 22.0822 86.5456 23.3498 85.7085L23.7756 86.3531C22.5538 87.1597 21.3563 88.1612 20.2162 89.3296ZM39.4849 84.4544C38.5627 84.4544 37.7224 84.3364 37.0934 84.2334L37.2182 83.4712C37.8555 83.5755 38.6232 83.682 39.4849 83.682C40.246 83.682 40.994 83.5985 41.7717 83.4263L41.9384 84.1806C41.1053 84.3648 40.3027 84.4544 39.4849 84.4544ZM27.928 84.3522L27.6956 83.6157C28.5253 83.3539 29.3848 83.1578 30.2501 83.0324C30.9933 82.9249 31.7038 82.8727 32.422 82.8727H32.4696V83.6451H32.422C31.7411 83.6451 31.067 83.6947 30.3608 83.7969C29.5366 83.9162 28.7179 84.1031 27.928 84.3522ZM46.3378 82.1201L45.8441 81.5262C46.9099 80.6409 47.6738 79.5704 48.4827 78.4369L48.8053 77.986L49.4321 78.4375L49.1114 78.8855C48.2726 80.0608 47.4803 81.1711 46.3378 82.1201ZM52.5318 75.0384L52.0566 74.4293C53.0976 73.617 54.2739 72.9587 55.6523 72.417C55.8871 72.3246 56.1115 72.2422 56.3268 72.1688L56.5761 72.8997C56.3713 72.9696 56.1582 73.0479 55.935 73.1358C54.6265 73.65 53.5134 74.2722 52.5318 75.0384ZM61.8561 72.3557C61.5963 72.3557 61.3498 72.3532 61.113 72.3506L61.122 71.5782C61.3642 71.581 61.6168 71.5816 61.8842 71.5833C62.7931 71.5833 64.0589 71.5575 65.7952 71.3565L65.8842 72.1235C64.0906 72.3313 62.8048 72.353 61.8561 72.3557ZM70.5825 71.3442L70.4294 70.5873C71.8167 70.3067 73.4306 69.9728 75.0282 69.5606L75.2212 70.3084C73.6054 70.7253 71.9796 71.0617 70.5825 71.3442ZM79.771 68.8442L79.4821 68.1279C81.0308 67.5035 82.3754 66.7994 83.5932 65.975L84.0261 66.6146C82.7627 67.4699 81.3707 68.1993 79.771 68.8442ZM87.5747 63.3253L86.9479 62.8739C87.1635 62.5748 87.3498 62.2831 87.5298 62.001C88.0616 61.1683 88.6116 60.3071 89.9212 59.25L90.0129 59.1767L90.4914 59.7827L90.4064 59.8508C89.1947 60.8291 88.7023 61.6003 88.1808 62.4168C87.995 62.7077 87.8027 63.0087 87.5747 63.3253ZM94.5035 57.5326L94.2218 56.8134C95.5984 56.2737 97.1531 55.8394 98.8428 55.5225L98.9854 56.2816C97.3432 56.5897 95.8352 57.0106 94.5035 57.5326Z" fill="#CCCCCC"/>
<path d="M103.706 55.7144L103.658 54.9435C104.409 54.8966 105.193 54.8656 105.99 54.8513L106.004 55.6237C105.219 55.6376 104.445 55.6682 103.706 55.7144Z" fill="#CCCCCC"/>
<path d="M24.5703 29.2363H13.734C13.1895 29.2363 12.7454 29.6804 12.7454 30.225C12.7454 30.7733 13.1895 31.2174 13.734 31.2174H24.5703C25.1148 31.2174 25.5589 30.7733 25.5589 30.225C25.5589 29.6805 25.1148 29.2363 24.5703 29.2363Z" fill="#E6E6E6"/>
<path d="M42.7208 29.2363H31.8845C31.34 29.2363 30.8959 29.6804 30.8959 30.225C30.8959 30.7733 31.34 31.2174 31.8845 31.2174H42.7208C43.2653 31.2174 43.7094 30.7733 43.7094 30.225C43.7094 29.6805 43.2653 29.2363 42.7208 29.2363Z" fill="#E6E6E6"/>
<path d="M60.8713 29.2363H50.035C49.4905 29.2363 49.0464 29.6804 49.0464 30.225C49.0464 30.7733 49.4905 31.2174 50.035 31.2174H60.8713C61.4158 31.2174 61.8599 30.7733 61.8599 30.225C61.8599 29.6805 61.4158 29.2363 60.8713 29.2363Z" fill="#E6E6E6"/>
<path d="M111.211 94.2419H12.7344V95.0143H111.211V94.2419Z" fill="#E6E6E6"/>
<path d="M106.009 37.8595C98.9997 38.041 93.7708 40.1032 90.4574 43.9805C89.2332 45.4171 88.735 46.5486 88.2098 47.7458C87.6885 48.9275 87.1555 50.144 85.9159 51.7312V50.4181C86.6844 49.2905 87.0976 48.3482 87.5031 47.433C88.0515 46.1817 88.5728 45 89.8704 43.4823C93.3306 39.4274 98.7526 37.2764 105.986 37.0872L106.009 37.8595Z" fill="#CCCCCC"/>
<path d="M88.2098 47.7458C87.6884 48.9275 87.1555 50.144 85.9158 51.7312C85.7691 51.9204 85.6108 52.1174 85.4408 52.3221C80.9688 57.6398 74.9946 59.3853 70.1905 60.791C69.8893 60.8798 69.5958 60.9609 69.31 61.0381C65.0389 62.1967 62.6986 62.1542 60.9569 62.1272C59.2075 62.0963 58.0528 62.077 55.9868 63.2587C52.1983 65.4175 50.6459 68.5764 49.1436 71.6311C47.5951 74.7746 46.1353 77.7444 42.4125 79.1385C39.8289 80.1039 38.0139 79.6251 36.0946 79.123C34.4455 78.6866 31.4736 67.9454 28.8421 66.379C23.4085 67.5183 20.1066 85.2749 15.9861 94.7827L15.2755 94.4737C19.5042 84.7265 22.9875 66.8193 28.6799 65.6221C31.2171 65.0892 34.5576 77.9181 36.2915 78.3738C38.0911 78.8489 39.7864 79.2929 42.1422 78.4125C45.5792 77.1303 46.9076 74.4232 48.4485 71.2913C49.9314 68.279 51.6113 64.8652 55.6006 62.5867C57.852 61.3008 59.1612 61.3239 60.9685 61.3548C62.6909 61.3857 65.0157 61.4243 69.31 60.2388C69.5263 60.177 69.7464 60.1152 69.9742 60.0495C74.678 58.6747 80.5286 56.9639 84.8461 51.8277C85.2709 51.3218 85.6223 50.8545 85.9158 50.4182C86.6843 49.2905 87.0975 48.3482 87.503 47.433C88.0514 46.1818 88.7349 46.5486 88.2098 47.7458Z" fill="#6C63FF"/>
<path d="M47.0276 136.097C46.7219 135.032 46.1984 134.124 45.5752 133.476L43.3107 123.154L38.3749 124.363L41.2034 134.704C41.0174 135.579 41.0546 136.623 41.3603 137.688C42.0586 140.12 43.8935 141.735 45.4585 141.295C47.0235 140.856 47.726 138.528 47.0276 136.097Z" fill="#FFB6B6"/>
<path d="M46.3447 68.383C46.3447 68.383 38.5499 68.2234 36.5678 73.8998C34.7638 79.0665 32.6252 93.2612 33.7813 94.0814L38.7023 129.025L45.7195 128.061L43.9185 86.1336L46.3447 68.383Z" fill="#6C63FF"/>
<path d="M82.4402 133.246L81.0577 169.934H62.7141L61.9726 153.494L58.7132 169.934H39.0527L41.505 141.673L44.0383 135.73L45.753 131.702L82.4402 133.246Z" fill="#2F2E41"/>
<path d="M67.7654 61.4164L55.0214 60.644L50.7734 66.0506L41.505 69.5262L45.753 110.848L43.8221 135.563C43.8221 135.563 70.8548 157.189 82.4403 133.246L79.3508 104.283L80.1232 70.6848L71.241 66.8229L67.7654 61.4164Z" fill="#6C63FF"/>
<path d="M92.2996 52.0174C92.4378 53.3563 92.2622 54.6154 91.8579 55.6249L93.9808 68.2962L87.9217 69.13L86.4206 56.1864C85.8185 55.2809 85.3893 54.0842 85.251 52.7453C84.9351 49.6867 86.2569 47.0442 88.2033 46.8432C90.1497 46.6422 91.9837 48.9588 92.2996 52.0174Z" fill="#FFB6B6"/>
<path d="M81.7459 72.1359C79.6571 68.5657 74.4758 68.2291 72.1552 71.6531C71.5208 72.5892 71.6975 73.6413 71.5461 74.9054C70.9031 80.272 81.1869 96.1299 88.3026 97.9558C89.2364 98.1954 89.7683 99.2026 90.7107 99.4052C93.5027 100.005 96.1021 97.7892 95.9514 94.9375L94.0185 58.363L85.8982 61.1327L86.418 80.1215L81.7459 72.1359Z" fill="#6C63FF"/>
<path d="M62.7159 59.6449C68.9155 59.6449 73.9413 54.6191 73.9413 48.4195C73.9413 42.2199 68.9155 37.1941 62.7159 37.1941C56.5163 37.1941 51.4905 42.2199 51.4905 48.4195C51.4905 54.6191 56.5163 59.6449 62.7159 59.6449Z" fill="#FFB6B6"/>
<path d="M73.1719 40.1765C73.0754 40.1997 74.6496 38.6653 74.7167 38.6318C76.2614 37.8594 74.6742 45.4093 73.5581 45.1969C70.8123 44.6755 69.6268 43.6406 68.5609 46.2241C68.2636 46.9424 68.0782 47.7534 67.4989 48.267C66.7034 48.966 65.3827 48.9081 64.7339 49.7422C64.2125 50.4142 64.3631 51.4028 64.7493 52.1597C65.1355 52.9205 65.7225 53.5654 66.0739 54.3417C66.4678 55.2144 64.7879 57.9911 64.1469 59.5512V59.5551L64.1431 59.5642C63.9727 59.9735 63.5679 58.7946 63.1406 58.6769C62.6292 58.5361 61.8758 59.7436 61.0613 59.5242C61.0574 59.5242 61.0536 59.5203 61.0497 59.5203C60.2735 59.3041 59.4084 59.0724 58.5511 58.8407H58.5472C56.1336 58.1842 55.5234 59.1264 55.4076 59.0994L53.9092 57.5315C53.395 57.1571 53.4531 55.9484 53.0905 55.6238C52.794 55.3583 52.0547 55.9718 51.8368 55.7166C50.7685 54.4653 50.5227 53.2137 49.8929 50.7424C49.3175 48.4833 48.1242 41.7212 50.5764 41.4161C52.8897 41.1265 51.1982 37.9058 53.5269 38.0255C53.3879 37.4385 53.6466 36.809 54.0675 36.3765C54.4846 35.9401 55.0407 35.6698 55.6007 35.4381C58.3619 34.3104 57.9023 33.3411 60.8141 33.9976C61.1038 33.5921 65.3093 33.8624 65.8345 33.9976C65.8731 34.0053 64.5331 34.3259 66.6068 33.9976C66.5296 34.4726 67.8426 34.6812 67.7654 35.1562C68.055 34.7661 71.1677 37.006 71.241 37.4732C71.3376 38.0564 70.4571 37.759 71.0441 37.8478C71.3916 37.9019 71.9864 38.6086 71.9284 38.96C72.1794 38.6202 72.4305 38.2842 72.6853 37.9444C72.7317 37.9482 72.7742 37.956 72.8205 37.9637C73.9945 38.1877 72.6486 42.0255 72.6969 40.8292C72.7858 38.6318 74.3421 39.9178 73.1719 40.1765Z" fill="#2F2E41"/>
<path d="M116.177 99.9232C116.264 100.136 116.562 100.136 116.649 99.9232C117.252 98.4366 118.11 96.7718 119.044 95.4996C119.193 95.2959 118.987 95.0237 118.75 95.1096L116.748 95.8338V83.4426H116.078V95.8338L114.075 95.1096C113.838 95.0236 113.632 95.2958 113.781 95.4995C114.715 96.7718 115.574 98.4366 116.177 99.9232Z" fill="#3F3D56"/>
<path d="M129.304 112.682C129.239 112.902 129.473 113.088 129.673 112.975C131.07 112.186 132.777 111.416 134.3 111C134.543 110.934 134.551 110.592 134.312 110.512L132.294 109.834L140 100.131L139.475 99.7141L131.769 109.418L130.651 107.605C130.519 107.39 130.188 107.475 130.179 107.727C130.119 109.305 129.756 111.142 129.304 112.682Z" fill="#3F3D56"/>
<path d="M123.035 120.951H110.012C109.203 120.951 108.546 120.293 108.546 119.484C106.824 114.452 106.858 109.521 108.546 104.685C108.546 103.876 109.203 103.219 110.012 103.219H123.035C123.843 103.219 124.501 103.876 124.501 104.685V119.484C124.501 120.293 123.843 120.951 123.035 120.951Z" fill="#E6E6E6"/>
<path d="M112.802 103.655C110.693 103.655 108.983 105.365 108.983 107.475V119.17C108.983 119.912 109.584 120.514 110.326 120.514H117.527C121.137 120.514 124.064 117.587 124.064 113.977V104.998C124.064 104.256 123.462 103.655 122.721 103.655H112.802Z" fill="white"/>
<path d="M119.556 107.956H113.459C113.305 107.956 113.18 107.831 113.18 107.677C113.18 107.524 113.305 107.399 113.459 107.399H119.556C119.71 107.399 119.835 107.524 119.835 107.677C119.835 107.831 119.71 107.956 119.556 107.956Z" fill="#E6E6E6"/>
<path d="M119.556 113.9H113.459C113.305 113.9 113.18 113.775 113.18 113.621C113.18 113.468 113.305 113.343 113.459 113.343H119.556C119.71 113.343 119.835 113.468 119.835 113.621C119.835 113.775 119.71 113.9 119.556 113.9Z" fill="#E6E6E6"/>
<path d="M122.828 110.93H110.187C110.034 110.93 109.909 110.805 109.909 110.652C109.909 110.498 110.034 110.373 110.187 110.373H122.828C122.982 110.373 123.107 110.498 123.107 110.652C123.107 110.805 122.982 110.93 122.828 110.93Z" fill="#E6E6E6"/>
<path d="M122.977 116.318H117.702C117.549 116.318 117.424 116.192 117.424 116.039C117.424 115.885 117.549 115.76 117.702 115.76H122.977C123.13 115.76 123.255 115.885 123.255 116.039C123.255 116.192 123.13 116.318 122.977 116.318Z" fill="#E6E6E6"/>
<path d="M4.81309 10.2608C7.47128 10.2608 9.62618 8.15127 9.62618 5.54908C9.62618 2.94689 7.47128 0.837402 4.81309 0.837402C2.15489 0.837402 0 2.94689 0 5.54908C0 8.15127 2.15489 10.2608 4.81309 10.2608Z" fill="#6C63FF"/>
<path d="M43.3975 3.93716H17.4906C16.6018 3.93716 15.8787 3.21404 15.8787 2.32527C15.8787 1.4365 16.6018 0.713379 17.4906 0.713379H43.3975C44.2863 0.713379 45.0094 1.4365 45.0094 2.32527C45.0094 3.21404 44.2863 3.93716 43.3975 3.93716Z" fill="#F2F2F2"/>
<path d="M63.6154 9.39273H17.4906C16.6018 9.39273 15.8787 8.66961 15.8787 7.78084C15.8787 6.89207 16.6018 6.16895 17.4906 6.16895H63.6154C64.5042 6.16895 65.2273 6.89207 65.2273 7.78084C65.2273 8.66961 64.5042 9.39273 63.6154 9.39273Z" fill="#F2F2F2"/>
</svg>
