<svg width="143" height="166" viewBox="0 0 143 166" fill="none" xmlns="http://www.w3.org/2000/svg">
<g clip-path="url(#clip0_2_26)">
<path d="M143 147.354H104.618V146.857C114.666 146.857 124.302 142.867 131.407 135.766C138.512 128.664 142.503 119.032 142.503 108.989V82.2153H143V147.354Z" fill="#F2F2F2"/>
<path d="M38.2731 50.5829C37.2527 50.9714 36.2108 51.3008 35.1525 51.5693C33.7546 51.9099 32.9653 52.0677 31.6161 51.5443C31.5687 51.5259 31.5234 51.5077 31.4808 51.4899C28.9233 50.403 26.7371 48.5964 25.1883 46.2901C23.6395 43.9837 22.7949 41.2771 22.7573 38.4996C22.7505 38.4043 22.7505 38.3042 22.7505 38.2064C22.7492 37.7357 22.7717 37.2652 22.818 36.7967C22.8771 36.1586 22.9792 35.5252 23.1237 34.9008L23.1102 34.8984C22.0178 33.7819 21.5975 32.2525 21.7368 30.7157C21.8323 29.6739 22.1631 28.6673 22.7043 27.7718C23.2455 26.8763 23.983 26.1152 24.8612 25.546C26.2375 24.6811 27.7893 24.1336 29.4039 23.9433C29.8374 23.8933 30.2734 23.868 30.7098 23.8676H34.8097C35.6564 23.6694 36.5167 23.5338 37.3834 23.462H37.3901C45.6416 22.7779 52.1488 28.2457 51.5419 34.8984C51.5374 34.9057 51.5307 34.9131 51.5262 34.9204C51.3508 35.2062 51.1957 35.4774 51.0586 35.7364C50.926 35.9783 50.8136 36.2104 50.717 36.4303C49.964 38.1307 53.5424 64.5129 52.2589 64.9136C51.5284 65.1408 48.5839 45.509 49.1121 49.2422C49.7774 53.9257 42.0745 49.1784 38.2731 50.5829Z" fill="#2F2E41"/>
<path d="M50.7035 98.2743L62.1416 122.631L18.1417 118.177L27.3264 94.7947L50.7035 98.2743Z" fill="#FFB6B6"/>
<path d="M73.6647 147.108C66.0134 149.654 57.9501 150.733 49.8982 150.29L46.3969 144.614C46.3969 144.614 46.2503 146.728 46.0316 149.96C42.1987 149.516 38.4158 148.714 34.7323 147.565C27.747 145.382 21.1991 141.999 14.5617 138.879C13.2173 130.869 12.7128 118.517 20.1454 111.326L60.1513 118.653C60.1513 118.653 66.57 123.452 64.8529 125.171C63.1358 126.887 62.8699 126.621 63.9981 127.749C65.1263 128.877 67.564 130.384 67.5889 131.371C67.5988 131.756 70.3348 138.738 73.6647 147.108Z" fill="#2F2E41"/>
<path d="M43.7175 51.2085L34.0522 51.8825L27.8052 57.9163L25.6173 58.3066C23.6507 58.6571 21.8812 59.7167 20.6442 61.2846C19.4072 62.8524 18.7889 64.8195 18.9063 66.8127C19.3564 74.4338 20.364 85.821 22.47 89.5154C25.7356 95.244 28.4329 93.4466 25.7356 95.244C23.0383 97.0414 21.2274 95.629 22.47 98.4696C23.7126 101.31 20.7905 104.954 20.7905 104.954L19.6273 106.116L20.8611 106.622L60.1727 111.735C60.1727 111.735 56.7735 96.4584 58.8993 92.7058C61.0251 88.9532 66.1794 77.6098 61.5793 73.1713L57.0815 57.3507L49.3448 55.0699L43.7175 51.2085Z" fill="#6C63FF"/>
<path d="M102.226 113.906C101.579 113.886 100.945 113.725 100.366 113.435C99.7874 113.145 99.2787 112.734 98.875 112.228C98.4714 111.722 98.1825 111.135 98.0282 110.507C97.8739 109.879 97.858 109.224 97.9816 108.589L79.5414 96.1068L81.7416 90.1597L103.535 105.146C104.589 105.433 105.5 106.097 106.097 107.011C106.694 107.926 106.935 109.027 106.773 110.107C106.612 111.187 106.06 112.17 105.222 112.87C104.384 113.571 103.318 113.939 102.226 113.906Z" fill="#FFB6B6"/>
<path d="M50.1415 56.6037L47.4619 57.6642L61.756 85.5686L91.347 105.73L95.6125 98.5236L73.0875 79.0765L64.0695 61.7893C62.8004 59.3565 60.6744 57.48 58.1021 56.5223C55.5298 55.5646 52.6936 55.5936 50.1415 56.6037Z" fill="#6C63FF"/>
<path d="M38.382 48.7545C43.7421 48.7545 48.0873 44.4113 48.0873 39.0536C48.0873 33.696 43.7421 29.3528 38.382 29.3528C33.0219 29.3528 28.6766 33.696 28.6766 39.0536C28.6766 44.4113 33.0219 48.7545 38.382 48.7545Z" fill="#FFB6B6"/>
<path d="M46.8216 34.9514C46.6598 35.0368 46.5002 35.1154 46.3384 35.1941C46.1698 35.2749 46.0012 35.3558 45.8304 35.4322C42.5824 36.9038 39.9368 37.0678 38.3319 34.9514C38.288 33.838 38.0372 32.7424 37.5924 31.7207C37.671 32.8625 37.3699 33.9983 36.736 34.9514H33.5038C30.1748 37.1599 28.4666 39.1887 30.7772 46.4388C30.9278 46.9152 31.9596 63.8373 32.254 65.1382C27.2146 63.206 22.8674 42.6913 22.7573 37.2858C22.7505 37.1981 22.7505 37.106 22.7505 37.0161C22.7492 36.5831 22.7718 36.1503 22.818 35.7198C22.8773 35.132 22.9795 34.5493 23.1237 33.9764L23.1102 33.9741C22.5975 33.4841 22.2063 32.8812 21.9679 32.2135C21.7294 31.5457 21.6503 30.8315 21.7368 30.1277C22.5822 29.0213 23.6284 28.0839 24.8207 27.3643C25.9049 26.8395 27.035 26.4154 28.1968 26.0971C28.226 26.0904 28.2508 26.0837 28.28 26.0769C28.6351 25.9803 28.9993 25.8927 29.3634 25.8163C30.1138 25.659 30.8725 25.5443 31.6359 25.4726C31.6921 25.4703 31.746 25.4658 31.7955 25.4658C32.1008 25.466 32.4005 25.5483 32.6631 25.704C32.6653 25.704 32.6653 25.7062 32.6698 25.7062C32.9222 25.8569 33.1314 26.07 33.2775 26.325C33.4236 26.58 33.5015 26.8683 33.5037 27.1621H37.1046C37.2372 27.1621 37.3699 27.1666 37.5025 27.1733C42.5172 27.3733 46.5474 29.5166 46.8059 34.4437C46.8171 34.6144 46.8216 34.7807 46.8216 34.9514Z" fill="#2F2E41"/>
<path d="M25.5326 35.3413C29.0639 35.3413 31.9265 32.4799 31.9265 28.9503C31.9265 25.4207 29.0639 22.5593 25.5326 22.5593C22.0013 22.5593 19.1387 25.4207 19.1387 28.9503C19.1387 32.4799 22.0013 35.3413 25.5326 35.3413Z" fill="#2F2E41"/>
<path d="M34.3107 25.9944C33.5843 29.4485 30.0005 31.5144 26.5719 30.6693C24.9254 30.2635 23.5077 29.2206 22.6306 27.7699C21.7535 26.3193 21.4888 24.5798 21.8948 22.9341C22.7402 19.5071 26.9012 20.4951 29.6336 18.2591C33.4989 15.0961 35.2903 21.3362 34.3107 25.9944Z" fill="#2F2E41"/>
<path d="M20.1044 122.145C25.5538 99.9322 36.3513 80.8403 54.2334 65.882C54.9255 64.744 56.0409 63.9269 57.335 63.6099C58.629 63.2929 59.996 63.5019 61.1361 64.1911L103.646 89.9542C104.785 90.6459 105.602 91.7608 105.92 93.0542C106.237 94.3477 106.028 95.7141 105.338 96.8536C98.5127 119.646 88.2899 139.424 71.209 153.116C70.517 154.254 69.4016 155.071 68.1076 155.388C66.8135 155.705 65.4465 155.496 64.3065 154.807L21.7961 129.044C20.6576 128.352 19.8401 127.237 19.523 125.944C19.2058 124.65 19.4149 123.284 20.1044 122.145Z" fill="#F2F2F2"/>
<path opacity="0.2" d="M27.6602 129.63C26.5217 128.939 25.7042 127.824 25.3871 126.53C25.0699 125.237 25.279 123.871 25.9685 122.731C31.4179 100.519 42.2154 81.4267 60.0975 66.4684C60.5556 65.7235 61.2024 65.1128 61.9725 64.6981L61.136 64.191C59.996 63.5019 58.629 63.2929 57.3349 63.6099C56.0409 63.9269 54.9255 64.7439 54.2334 65.8819C36.3513 80.8402 25.5538 99.9321 20.1044 122.145C19.4149 123.284 19.2058 124.65 19.523 125.944C19.8401 127.237 20.6576 128.352 21.7961 129.044L64.3064 154.807C65.063 155.262 65.9265 155.509 66.8094 155.523C67.6924 155.537 68.5633 155.318 69.3339 154.887L27.6602 129.63Z" fill="black"/>
<path d="M77.5139 117.221L48.979 100.035C48.5257 99.7613 48.1996 99.3188 48.0724 98.8048C47.9452 98.2909 48.0273 97.7475 48.3007 97.294C48.574 96.8405 49.0163 96.514 49.5303 96.3862C50.0444 96.2584 50.5881 96.3398 51.0422 96.6125L79.5771 113.798C80.0293 114.072 80.3543 114.515 80.4808 115.028C80.6073 115.541 80.5251 116.084 80.2521 116.537C79.979 116.99 79.5375 117.316 79.0243 117.444C78.511 117.572 77.9679 117.492 77.5139 117.221Z" fill="white"/>
<path d="M60.9141 94.4308L54.6364 90.65C54.1815 90.378 53.8533 89.9365 53.7241 89.4226C53.5948 88.9086 53.6751 88.3645 53.9473 87.9097C54.2195 87.455 54.6612 87.127 55.1753 86.9978C55.6895 86.8686 56.2339 86.9489 56.6888 87.2209L56.6996 87.2274L62.9773 91.0082C63.4297 91.2825 63.7548 91.7249 63.8814 92.2384C64.008 92.7519 63.9257 93.2946 63.6527 93.7476C63.3796 94.2006 62.938 94.5268 62.4246 94.6549C61.9113 94.783 61.3681 94.7024 60.9141 94.4308Z" fill="white"/>
<path d="M72.9788 124.744L44.4439 107.558C43.99 107.285 43.6632 106.843 43.5353 106.329C43.4074 105.815 43.4889 105.272 43.7617 104.818C44.0346 104.364 44.4766 104.037 44.9906 103.908C45.5046 103.78 46.0486 103.861 46.503 104.133L46.507 104.136L75.0419 121.321C75.4942 121.596 75.8192 122.038 75.9457 122.551C76.0722 123.065 75.9899 123.607 75.7169 124.06C75.4439 124.513 75.0024 124.839 74.4891 124.968C73.9759 125.096 73.4327 125.015 72.9788 124.744Z" fill="white"/>
<path d="M81.1377 84.8168C85.7407 84.8168 89.4721 81.087 89.4721 76.4861C89.4721 71.8853 85.7407 68.1555 81.1377 68.1555C76.5347 68.1555 72.8032 71.8853 72.8032 76.4861C72.8032 81.087 76.5347 84.8168 81.1377 84.8168Z" fill="#3F3D56"/>
<path d="M66.7712 165.752C76.6095 165.752 84.5849 157.78 84.5849 147.946C84.5849 138.112 76.6095 130.141 66.7712 130.141C56.933 130.141 48.9576 138.112 48.9576 147.946C48.9576 157.78 56.933 165.752 66.7712 165.752Z" fill="white"/>
<path d="M66.7712 166C63.1989 166 59.7067 164.941 56.7364 162.957C53.7661 160.974 51.451 158.154 50.084 154.855C48.7169 151.556 48.3592 147.926 49.0561 144.424C49.753 140.922 51.4733 137.705 53.9993 135.18C56.5253 132.655 59.7437 130.936 63.2474 130.239C66.7511 129.543 70.3828 129.9 73.6832 131.267C76.9837 132.633 79.8046 134.947 81.7893 137.916C83.774 140.885 84.8334 144.375 84.8334 147.946C84.828 152.733 82.9233 157.322 79.5371 160.706C76.151 164.091 71.56 165.995 66.7712 166ZM66.7712 130.389C63.2972 130.389 59.9011 131.419 57.0125 133.348C54.1239 135.277 51.8726 138.019 50.5431 141.227C49.2136 144.436 48.8658 147.966 49.5436 151.371C50.2213 154.777 51.8943 157.906 54.3508 160.361C56.8074 162.816 59.9372 164.488 63.3445 165.166C66.7518 165.843 70.2836 165.496 73.4932 164.167C76.7028 162.838 79.4461 160.588 81.3762 157.7C83.3062 154.813 84.3364 151.419 84.3364 147.946C84.3311 143.291 82.4788 138.829 79.1858 135.537C75.8929 132.246 71.4282 130.394 66.7712 130.389Z" fill="#3F3D56"/>
<path d="M64.3411 157.213C64.0335 157.213 63.7301 157.141 63.455 157.004C63.1798 156.866 62.9405 156.667 62.756 156.421L57.8962 149.944C57.7398 149.736 57.626 149.499 57.5612 149.247C57.4964 148.995 57.482 148.732 57.5187 148.475C57.5554 148.217 57.6426 147.969 57.7752 147.745C57.9078 147.521 58.0833 147.326 58.2915 147.17C58.4998 147.013 58.7369 146.9 58.9891 146.835C59.2413 146.771 59.5038 146.757 59.7615 146.794C60.0192 146.831 60.2672 146.918 60.4911 147.051C60.715 147.183 60.9106 147.359 61.0666 147.567L64.2461 151.804L72.4122 139.561C72.5565 139.345 72.7421 139.159 72.9583 139.014C73.1745 138.869 73.4171 138.768 73.6723 138.717C73.9275 138.666 74.1902 138.666 74.4455 138.717C74.7007 138.767 74.9436 138.867 75.1601 139.012C75.3766 139.156 75.5626 139.341 75.7074 139.558C75.8522 139.774 75.953 140.016 76.004 140.271C76.055 140.526 76.0553 140.789 76.0048 141.044C75.9543 141.299 75.854 141.542 75.7097 141.758L65.99 156.331C65.8142 156.595 65.5777 156.812 65.3004 156.966C65.0231 157.119 64.713 157.204 64.3962 157.212C64.3779 157.213 64.3595 157.213 64.3411 157.213Z" fill="#6C63FF"/>
<path d="M124.301 57.7161C125.009 57.6556 125.548 57.2075 125.506 56.7153C125.464 56.2231 124.856 55.8732 124.148 55.9337C123.44 55.9942 122.901 56.4422 122.943 56.9344C122.985 57.4266 123.593 57.7766 124.301 57.7161Z" fill="white"/>
<path d="M132.265 55.0157C132.973 54.9552 133.513 54.5071 133.471 54.0149C133.429 53.5227 132.821 53.1727 132.113 53.2332C131.405 53.2937 130.865 53.7418 130.907 54.234C130.949 54.7262 131.557 55.0762 132.265 55.0157Z" fill="#3F3D56"/>
<path d="M120.525 51.6426C121.233 51.5821 121.773 51.1341 121.731 50.6419C121.689 50.1497 121.081 49.7997 120.373 49.8602C119.665 49.9207 119.125 50.3687 119.167 50.8609C119.21 51.3531 119.818 51.7031 120.525 51.6426Z" fill="#FF6584"/>
<path d="M117.185 49.6855C117.489 49.6167 117.656 49.2061 117.557 48.7683C117.458 48.3306 117.131 48.0315 116.826 48.1003C116.522 48.1691 116.355 48.5797 116.454 49.0175C116.553 49.4553 116.88 49.7543 117.185 49.6855Z" fill="#E6E6E6"/>
<path d="M114.806 44.9343C115.111 44.8655 115.277 44.4549 115.178 44.0171C115.079 43.5793 114.752 43.2802 114.448 43.349C114.143 43.4179 113.976 43.8285 114.075 44.2663C114.174 44.704 114.501 45.0031 114.806 44.9343Z" fill="#3F3D56"/>
<path d="M126.218 51.6067C126.523 51.5379 126.689 51.1272 126.59 50.6895C126.492 50.2517 126.164 49.9526 125.86 50.0214C125.555 50.0902 125.388 50.5009 125.487 50.9386C125.586 51.3764 125.913 51.6755 126.218 51.6067Z" fill="#E6E6E6"/>
<path d="M122.739 54.4931C123.044 54.4243 123.211 54.0137 123.112 53.5759C123.013 53.1382 122.686 52.8391 122.381 52.9079C122.076 52.9767 121.91 53.3873 122.008 53.8251C122.107 54.2629 122.435 54.562 122.739 54.4931Z" fill="#FF6584"/>
<path d="M129.072 56.8442C129.377 56.7754 129.544 56.3648 129.445 55.927C129.346 55.4892 129.019 55.1901 128.714 55.259C128.409 55.3278 128.243 55.7384 128.341 56.1762C128.44 56.6139 128.768 56.913 129.072 56.8442Z" fill="#3F3D56"/>
<path d="M91.4179 20.9121C91.5393 20.4333 91.0795 19.9037 90.3908 19.7292C89.7021 19.5548 89.0454 19.8015 88.924 20.2804C88.8026 20.7593 89.2624 21.2889 89.9511 21.4633C90.6398 21.6378 91.2965 21.391 91.4179 20.9121Z" fill="white"/>
<path d="M83.0078 20.8579C83.1292 20.3791 82.6693 19.8494 81.9806 19.675C81.292 19.5005 80.6353 19.7473 80.5138 20.2262C80.3924 20.7051 80.8523 21.2347 81.541 21.4091C82.2296 21.5836 82.8864 21.3368 83.0078 20.8579Z" fill="#3F3D56"/>
<path d="M92.9961 27.8865C93.1175 27.4076 92.6577 26.878 91.969 26.7036C91.2803 26.5291 90.6236 26.7759 90.5022 27.2548C90.3808 27.7336 90.8406 28.2632 91.5293 28.4377C92.218 28.6121 92.8747 28.3654 92.9961 27.8865Z" fill="#FF6584"/>
<path d="M94.9566 30.5162C95.0065 30.0702 94.7952 29.6805 94.4848 29.6458C94.1744 29.6112 93.8823 29.9446 93.8325 30.3907C93.7826 30.8367 93.9938 31.2263 94.3043 31.261C94.6147 31.2957 94.9067 30.9622 94.9566 30.5162Z" fill="#E6E6E6"/>
<path d="M95.6481 35.784C95.698 35.338 95.4868 34.9483 95.1763 34.9137C94.8659 34.879 94.5739 35.2125 94.524 35.6585C94.4741 36.1045 94.6854 36.4942 94.9958 36.5288C95.3062 36.5635 95.5983 36.23 95.6481 35.784Z" fill="#3F3D56"/>
<path d="M87.05 25.7452C87.0999 25.2992 86.8887 24.9095 86.5783 24.8748C86.2678 24.8402 85.9758 25.1736 85.9259 25.6197C85.8761 26.0657 86.0873 26.4554 86.3977 26.49C86.7081 26.5247 87.0002 26.1912 87.05 25.7452Z" fill="#E6E6E6"/>
<path d="M91.2824 24.1561C91.3323 23.7101 91.121 23.3204 90.8106 23.2857C90.5002 23.2511 90.2081 23.5845 90.1583 24.0305C90.1084 24.4766 90.3196 24.8662 90.6301 24.9009C90.9405 24.9356 91.2325 24.6021 91.2824 24.1561Z" fill="#FF6584"/>
<path d="M86.0683 19.8624C86.1181 19.4164 85.9069 19.0267 85.5965 18.992C85.2861 18.9574 84.994 19.2908 84.9442 19.7368C84.8943 20.1829 85.1055 20.5725 85.4159 20.6072C85.7264 20.6419 86.0184 20.3084 86.0683 19.8624Z" fill="#3F3D56"/>
<path d="M0.496998 65.1381H0V0H38.3819V0.496769C28.3342 0.496769 18.698 4.48636 11.5932 11.5879C4.48843 18.6894 0.496998 28.3211 0.496998 38.3642V65.1381Z" fill="#F2F2F2"/>
<path d="M22.755 122.38C22.1199 122.12 21.5488 121.725 21.0814 121.222C20.6139 120.72 20.2612 120.122 20.0477 119.47C19.8342 118.818 19.7649 118.127 19.8447 117.446C19.9245 116.764 20.1514 116.108 20.5098 115.523L6.81616 96.283L11.2092 91.1887L27.3061 114.159C28.2467 114.836 28.9065 115.833 29.1604 116.963C29.4142 118.093 29.2446 119.277 28.6836 120.29C28.1227 121.303 27.2093 122.076 26.1166 122.461C25.0239 122.846 23.8279 122.817 22.755 122.38Z" fill="#FFB6B6"/>
<path d="M23.0697 61.4087C22.3769 61.0013 21.5615 60.854 20.7699 60.9933C19.9783 61.1326 19.2623 61.5494 18.7504 62.1688L0.248474 88.0328L17.3949 112.374L24.1044 105.171L13.6674 88.7779L27.5382 75.5774C28.6781 73.0815 28.8522 70.2519 28.0269 67.6351C27.2016 65.0183 25.4355 62.8001 23.0697 61.4087Z" fill="#6C63FF"/>
</g>
<defs>
<clipPath id="clip0_2_26">
<rect width="143" height="166" fill="white"/>
</clipPath>
</defs>
</svg>
